<svg xmlns="http://www.w3.org/2000/svg" xmlns:xlink="http://www.w3.org/1999/xlink" width="3240" zoomAndPan="magnify" viewBox="0 0 2430 809.999993" height="1080" preserveAspectRatio="xMidYMid meet" version="1.0"><defs><g/><clipPath id="38b87adf1b"><path d="M 0.0390625 0 L 810.039062 0 L 810.039062 810 L 0.0390625 810 Z M 0.0390625 0 " clip-rule="nonzero"/></clipPath><clipPath id="0901f69917"><path d="M 0.0390625 0 L 701 0 L 701 565 L 0.0390625 565 Z M 0.0390625 0 " clip-rule="nonzero"/></clipPath><clipPath id="8595fbe24f"><path d="M 501 91 L 810 91 L 810 391 L 501 391 Z M 501 91 " clip-rule="nonzero"/></clipPath><clipPath id="ecd0908e88"><path d="M 599.664062 91.152344 L 809.523438 197.179688 L 711.785156 390.632812 L 501.925781 284.609375 Z M 599.664062 91.152344 " clip-rule="nonzero"/></clipPath><clipPath id="99d693af3f"><path d="M 45 9 L 156 9 L 156 198 L 45 198 Z M 45 9 " clip-rule="nonzero"/></clipPath><clipPath id="9e9c584583"><path d="M 98.664062 0.152344 L 308.523438 106.179688 L 210.785156 299.632812 L 0.925781 193.609375 Z M 98.664062 0.152344 " clip-rule="nonzero"/></clipPath><clipPath id="2b1c3ab7a4"><path d="M 308.554688 106.195312 L 98.695312 0.167969 L 0.957031 193.625 L 210.816406 299.648438 Z M 308.554688 106.195312 " clip-rule="nonzero"/></clipPath><clipPath id="74d631f7e1"><path d="M 90 134 L 284 134 L 284 260 L 90 260 Z M 90 134 " clip-rule="nonzero"/></clipPath><clipPath id="c2d5881c69"><path d="M 98.664062 0.152344 L 308.523438 106.179688 L 210.785156 299.632812 L 0.925781 193.609375 Z M 98.664062 0.152344 " clip-rule="nonzero"/></clipPath><clipPath id="92762f4c8b"><path d="M 308.554688 106.195312 L 98.695312 0.167969 L 0.957031 193.625 L 210.816406 299.648438 Z M 308.554688 106.195312 " clip-rule="nonzero"/></clipPath><clipPath id="b3cd5df569"><rect x="0" width="309" y="0" height="300"/></clipPath><clipPath id="76fd749d5f"><rect x="0" width="811" y="0" height="810"/></clipPath></defs><rect x="-243" width="2916" fill="#ffffff" y="-80.999999" height="971.999992" fill-opacity="1"/><rect x="-243" width="2916" fill="#2d4232" y="-80.999999" height="971.999992" fill-opacity="1"/><g transform="matrix(1, 0, 0, 1, 29, 0.000000000000039746)"><g clip-path="url(#76fd749d5f)"><g fill="#f5f5f0" fill-opacity="1"><g transform="translate(46.233431, 698.510123)"><g><path d="M 393.1875 -255.28125 L 497.84375 -255.28125 L 497.84375 -54.453125 C 470.976562 -34.179688 439.863281 -18.625 404.5 -7.78125 C 369.144531 3.0625 333.550781 8.484375 297.71875 8.484375 C 246.332031 8.484375 200.128906 -2.472656 159.109375 -24.390625 C 118.097656 -46.316406 85.921875 -76.726562 62.578125 -115.625 C 39.242188 -154.519531 27.578125 -198.484375 27.578125 -247.515625 C 27.578125 -296.546875 39.242188 -340.503906 62.578125 -379.390625 C 85.921875 -418.285156 118.332031 -448.691406 159.8125 -470.609375 C 201.300781 -492.535156 247.976562 -503.5 299.84375 -503.5 C 343.21875 -503.5 382.582031 -496.191406 417.9375 -481.578125 C 453.289062 -466.960938 482.992188 -445.75 507.046875 -417.9375 L 433.5 -350.046875 C 398.132812 -387.296875 355.46875 -405.921875 305.5 -405.921875 C 273.914062 -405.921875 245.863281 -399.316406 221.34375 -386.109375 C 196.832031 -372.910156 177.738281 -354.289062 164.0625 -330.25 C 150.394531 -306.207031 143.5625 -278.628906 143.5625 -247.515625 C 143.5625 -216.867188 150.394531 -189.519531 164.0625 -165.46875 C 177.738281 -141.425781 196.710938 -122.6875 220.984375 -109.25 C 245.265625 -95.820312 272.960938 -89.109375 304.078125 -89.109375 C 337.085938 -89.109375 366.789062 -96.175781 393.1875 -110.3125 Z M 393.1875 -255.28125 "/></g></g></g><g clip-path="url(#38b87adf1b)"><path stroke-linecap="butt" transform="matrix(-0.680028, 0.352309, -0.352309, -0.680028, 642.563801, 406.117512)" fill="none" stroke-linejoin="miter" d="M 13.290986 77.08676 C 153.636673 29.638902 293.980797 29.637742 434.323357 77.083278 " stroke="#f5f5f0" stroke-width="83" stroke-opacity="1" stroke-miterlimit="4"/></g><g clip-path="url(#0901f69917)"><path stroke-linecap="butt" transform="matrix(0.735845, -0.212349, 0.212349, 0.735845, 142.399772, 147.406769)" fill="none" stroke-linejoin="miter" d="M 16.288502 65.217011 C 88.650883 35.593975 161.011931 35.592128 233.370232 65.216371 " stroke="#c17754" stroke-width="86" stroke-opacity="1" stroke-miterlimit="4"/></g><g clip-path="url(#8595fbe24f)"><g clip-path="url(#ecd0908e88)"><g transform="matrix(1, 0, 0, 1, 501, 91)"><g clip-path="url(#b3cd5df569)"><g clip-path="url(#99d693af3f)"><g clip-path="url(#9e9c584583)"><g clip-path="url(#2b1c3ab7a4)"><path fill="#f5f5f0" d="M 66.617188 64.648438 C 81.785156 37.871094 101.277344 20.28125 116.027344 9.472656 C 116.378906 9.214844 116.902344 9.257812 117.207031 9.523438 C 125.292969 16.886719 148.371094 39.808594 154.195312 77.1875 C 158.402344 104.351562 151.546875 126.144531 147.53125 136.46875 C 147.445312 136.644531 147.3125 136.90625 147.09375 136.902344 C 138.042969 141.40625 125.792969 148.773438 113.523438 160.503906 C 104.671875 168.933594 98.132812 177.546875 93.476562 184.816406 C 92.90625 185.730469 91.554688 185.15625 91.777344 184.066406 C 95.550781 168.808594 98.898438 151.585938 101.113281 132.695312 C 102.652344 119.917969 103.488281 107.875 103.839844 96.574219 C 103.84375 95.484375 102.230469 95.214844 102.007812 96.304688 C 97.171875 115.617188 91.675781 135.582031 85.65625 155.9375 C 81.496094 170.015625 77.074219 183.742188 72.652344 197.035156 C 72.433594 197.691406 71.558594 197.902344 71.082031 197.335938 C 63.179688 187.65625 48.167969 166.296875 46.066406 136.265625 C 43.796875 105.050781 56.855469 82.019531 66.617188 64.648438 Z M 66.617188 64.648438 " fill-opacity="1" fill-rule="nonzero"/></g></g></g><g clip-path="url(#74d631f7e1)"><g clip-path="url(#c2d5881c69)"><g clip-path="url(#92762f4c8b)"><path fill="#f5f5f0" d="M 229.96875 136.246094 C 253.304688 139.398438 271.558594 147.199219 283.140625 153.269531 C 283.578125 153.488281 283.75 154.011719 283.527344 154.449219 C 277.929688 167.691406 268.472656 185.980469 253.164062 205.03125 C 240.308594 220.953125 228.289062 235.871094 207.035156 246.78125 C 199.949219 250.414062 165.53125 268.121094 125.871094 255.300781 C 109.527344 249.996094 97.78125 241.21875 90.605469 234.859375 C 90 234.332031 90.265625 233.375 91.09375 233.246094 C 114.242188 228.324219 142.515625 219.976562 172.859375 205.570312 C 187.246094 198.734375 200.238281 191.414062 211.617188 184.261719 C 212.578125 183.652344 211.800781 182.167969 210.707031 182.597656 C 190.640625 191.15625 167.605469 199.308594 141.785156 206.050781 C 126.058594 210.132812 111.078125 213.167969 97.015625 215.464844 C 96.316406 215.550781 95.753906 214.9375 96.015625 214.195312 C 100.871094 201.78125 119.859375 158.128906 164.664062 141.296875 C 191.761719 131.15625 217.976562 134.667969 229.96875 136.246094 Z M 229.96875 136.246094 " fill-opacity="1" fill-rule="nonzero"/></g></g></g></g></g></g></g></g></g><g fill="#f5f5f0" fill-opacity="1"><g transform="translate(913.795165, 374.250001)"><g><path d="M 131.78125 -75.984375 L 147.1875 -75.984375 L 147.1875 -18.015625 C 140.09375 -11.796875 131.695312 -7.019531 122 -3.6875 C 112.3125 -0.363281 102.109375 1.296875 91.390625 1.296875 C 76.203125 1.296875 62.523438 -2.03125 50.359375 -8.6875 C 38.203125 -15.34375 28.648438 -24.566406 21.703125 -36.359375 C 14.753906 -48.160156 11.28125 -61.367188 11.28125 -75.984375 C 11.28125 -90.597656 14.753906 -103.800781 21.703125 -115.59375 C 28.648438 -127.394531 38.203125 -136.625 50.359375 -143.28125 C 62.523438 -149.9375 76.273438 -153.265625 91.609375 -153.265625 C 103.191406 -153.265625 113.832031 -151.421875 123.53125 -147.734375 C 133.226562 -144.046875 141.40625 -138.582031 148.0625 -131.34375 L 138.078125 -121.140625 C 126.054688 -133.003906 110.785156 -138.9375 92.265625 -138.9375 C 79.960938 -138.9375 68.851562 -136.222656 58.9375 -130.796875 C 49.019531 -125.367188 41.238281 -117.84375 35.59375 -108.21875 C 29.957031 -98.59375 27.140625 -87.847656 27.140625 -75.984375 C 27.140625 -64.117188 29.957031 -53.410156 35.59375 -43.859375 C 41.238281 -34.304688 48.984375 -26.78125 58.828125 -21.28125 C 68.671875 -15.78125 79.742188 -13.03125 92.046875 -13.03125 C 107.679688 -13.03125 120.925781 -16.9375 131.78125 -24.75 Z M 131.78125 -75.984375 "/></g></g></g><g fill="#f5f5f0" fill-opacity="1"><g transform="translate(1105.4898, 374.250001)"><g><path d="M 24.75 -151.96875 L 40.8125 -151.96875 L 40.8125 -13.890625 L 125.921875 -13.890625 L 125.921875 0 L 24.75 0 Z M 24.75 -151.96875 "/></g></g></g><g fill="#f5f5f0" fill-opacity="1"><g transform="translate(1257.67326, 374.250001)"><g><path d="M 120.046875 -40.59375 L 35.390625 -40.59375 L 17.15625 0 L 0.4375 0 L 69.90625 -151.96875 L 85.75 -151.96875 L 155.21875 0 L 138.28125 0 Z M 114.1875 -53.625 L 77.71875 -135.25 L 41.25 -53.625 Z M 114.1875 -53.625 "/></g></g></g><g fill="#f5f5f0" fill-opacity="1"><g transform="translate(1437.210636, 374.250001)"><g><path d="M 66.640625 1.296875 C 55.359375 1.296875 44.539062 -0.507812 34.1875 -4.125 C 23.84375 -7.738281 15.847656 -12.515625 10.203125 -18.453125 L 16.5 -30.828125 C 22 -25.328125 29.304688 -20.875 38.421875 -17.46875 C 47.546875 -14.070312 56.953125 -12.375 66.640625 -12.375 C 80.242188 -12.375 90.445312 -14.867188 97.25 -19.859375 C 104.0625 -24.859375 107.46875 -31.335938 107.46875 -39.296875 C 107.46875 -45.367188 105.617188 -50.210938 101.921875 -53.828125 C 98.234375 -57.453125 93.710938 -60.238281 88.359375 -62.1875 C 83.003906 -64.144531 75.550781 -66.285156 66 -68.609375 C 54.5625 -71.492188 45.441406 -74.273438 38.640625 -76.953125 C 31.835938 -79.628906 26.007812 -83.71875 21.15625 -89.21875 C 16.3125 -94.71875 13.890625 -102.175781 13.890625 -111.59375 C 13.890625 -119.257812 15.914062 -126.238281 19.96875 -132.53125 C 24.019531 -138.832031 30.242188 -143.863281 38.640625 -147.625 C 47.035156 -151.382812 57.457031 -153.265625 69.90625 -153.265625 C 78.59375 -153.265625 87.09375 -152.070312 95.40625 -149.6875 C 103.726562 -147.300781 110.929688 -144.007812 117.015625 -139.8125 L 111.59375 -127 C 105.21875 -131.195312 98.410156 -134.34375 91.171875 -136.4375 C 83.941406 -138.539062 76.851562 -139.59375 69.90625 -139.59375 C 56.59375 -139.59375 46.566406 -137.019531 39.828125 -131.875 C 33.097656 -126.738281 29.734375 -120.117188 29.734375 -112.015625 C 29.734375 -105.941406 31.578125 -101.054688 35.265625 -97.359375 C 38.960938 -93.671875 43.597656 -90.847656 49.171875 -88.890625 C 54.742188 -86.941406 62.234375 -84.8125 71.640625 -82.5 C 82.785156 -79.75 91.796875 -77.035156 98.671875 -74.359375 C 105.546875 -71.679688 111.367188 -67.628906 116.140625 -62.203125 C 120.921875 -56.773438 123.3125 -49.425781 123.3125 -40.15625 C 123.3125 -32.488281 121.25 -25.503906 117.125 -19.203125 C 113 -12.910156 106.664062 -7.921875 98.125 -4.234375 C 89.582031 -0.546875 79.085938 1.296875 66.640625 1.296875 Z M 66.640625 1.296875 "/></g></g></g><g fill="#f5f5f0" fill-opacity="1"><g transform="translate(1594.604338, 374.250001)"><g><path d="M 66.640625 1.296875 C 55.359375 1.296875 44.539062 -0.507812 34.1875 -4.125 C 23.84375 -7.738281 15.847656 -12.515625 10.203125 -18.453125 L 16.5 -30.828125 C 22 -25.328125 29.304688 -20.875 38.421875 -17.46875 C 47.546875 -14.070312 56.953125 -12.375 66.640625 -12.375 C 80.242188 -12.375 90.445312 -14.867188 97.25 -19.859375 C 104.0625 -24.859375 107.46875 -31.335938 107.46875 -39.296875 C 107.46875 -45.367188 105.617188 -50.210938 101.921875 -53.828125 C 98.234375 -57.453125 93.710938 -60.238281 88.359375 -62.1875 C 83.003906 -64.144531 75.550781 -66.285156 66 -68.609375 C 54.5625 -71.492188 45.441406 -74.273438 38.640625 -76.953125 C 31.835938 -79.628906 26.007812 -83.71875 21.15625 -89.21875 C 16.3125 -94.71875 13.890625 -102.175781 13.890625 -111.59375 C 13.890625 -119.257812 15.914062 -126.238281 19.96875 -132.53125 C 24.019531 -138.832031 30.242188 -143.863281 38.640625 -147.625 C 47.035156 -151.382812 57.457031 -153.265625 69.90625 -153.265625 C 78.59375 -153.265625 87.09375 -152.070312 95.40625 -149.6875 C 103.726562 -147.300781 110.929688 -144.007812 117.015625 -139.8125 L 111.59375 -127 C 105.21875 -131.195312 98.410156 -134.34375 91.171875 -136.4375 C 83.941406 -138.539062 76.851562 -139.59375 69.90625 -139.59375 C 56.59375 -139.59375 46.566406 -137.019531 39.828125 -131.875 C 33.097656 -126.738281 29.734375 -120.117188 29.734375 -112.015625 C 29.734375 -105.941406 31.578125 -101.054688 35.265625 -97.359375 C 38.960938 -93.671875 43.597656 -90.847656 49.171875 -88.890625 C 54.742188 -86.941406 62.234375 -84.8125 71.640625 -82.5 C 82.785156 -79.75 91.796875 -77.035156 98.671875 -74.359375 C 105.546875 -71.679688 111.367188 -67.628906 116.140625 -62.203125 C 120.921875 -56.773438 123.3125 -49.425781 123.3125 -40.15625 C 123.3125 -32.488281 121.25 -25.503906 117.125 -19.203125 C 113 -12.910156 106.664062 -7.921875 98.125 -4.234375 C 89.582031 -0.546875 79.085938 1.296875 66.640625 1.296875 Z M 66.640625 1.296875 "/></g></g></g><g fill="#f5f5f0" fill-opacity="1"><g transform="translate(1832.757434, 374.250001)"><g><path d="M 133.515625 2.390625 L 112.453125 -19.328125 C 99.578125 -5.578125 82.644531 1.296875 61.65625 1.296875 C 51.8125 1.296875 43.015625 -0.328125 35.265625 -3.578125 C 27.523438 -6.835938 21.484375 -11.394531 17.140625 -17.25 C 12.804688 -23.113281 10.640625 -29.8125 10.640625 -37.34375 C 10.640625 -46.457031 13.53125 -54.628906 19.3125 -61.859375 C 25.101562 -69.097656 34.945312 -76.703125 48.84375 -84.671875 C 41.601562 -92.191406 36.609375 -98.59375 33.859375 -103.875 C 31.109375 -109.15625 29.734375 -114.765625 29.734375 -120.703125 C 29.734375 -130.398438 33.207031 -138.210938 40.15625 -144.140625 C 47.101562 -150.078125 56.441406 -153.046875 68.171875 -153.046875 C 79.023438 -153.046875 87.632812 -150.367188 94 -145.015625 C 100.363281 -139.660156 103.546875 -132.28125 103.546875 -122.875 C 103.546875 -115.351562 101.015625 -108.585938 95.953125 -102.578125 C 90.890625 -96.566406 82.132812 -89.945312 69.6875 -82.71875 L 111.375 -39.734375 C 116 -47.984375 119.398438 -57.75 121.578125 -69.03125 L 134.15625 -65.125 C 131.414062 -51.519531 126.929688 -39.867188 120.703125 -30.171875 L 142.40625 -7.8125 Z M 68.171875 -141.546875 C 60.640625 -141.546875 54.738281 -139.660156 50.46875 -135.890625 C 46.195312 -132.128906 44.0625 -127.140625 44.0625 -120.921875 C 44.0625 -116.429688 45.21875 -112.160156 47.53125 -108.109375 C 49.851562 -104.054688 54.414062 -98.554688 61.21875 -91.609375 C 72.21875 -97.984375 79.816406 -103.410156 84.015625 -107.890625 C 88.210938 -112.378906 90.3125 -117.300781 90.3125 -122.65625 C 90.3125 -128.445312 88.359375 -133.039062 84.453125 -136.4375 C 80.546875 -139.84375 75.117188 -141.546875 68.171875 -141.546875 Z M 62.515625 -11.5 C 79.304688 -11.5 92.914062 -17.21875 103.34375 -28.65625 L 57.53125 -75.765625 C 45.519531 -68.960938 37.234375 -62.8125 32.671875 -57.3125 C 28.109375 -51.8125 25.828125 -45.660156 25.828125 -38.859375 C 25.828125 -30.609375 29.191406 -23.984375 35.921875 -18.984375 C 42.660156 -13.992188 51.523438 -11.5 62.515625 -11.5 Z M 62.515625 -11.5 "/></g></g></g><g fill="#f5f5f0" fill-opacity="1"><g transform="translate(913.795165, 590.99999)"><g><path d="M 131.78125 -75.984375 L 147.1875 -75.984375 L 147.1875 -18.015625 C 140.09375 -11.796875 131.695312 -7.019531 122 -3.6875 C 112.3125 -0.363281 102.109375 1.296875 91.390625 1.296875 C 76.203125 1.296875 62.523438 -2.03125 50.359375 -8.6875 C 38.203125 -15.34375 28.648438 -24.566406 21.703125 -36.359375 C 14.753906 -48.160156 11.28125 -61.367188 11.28125 -75.984375 C 11.28125 -90.597656 14.753906 -103.800781 21.703125 -115.59375 C 28.648438 -127.394531 38.203125 -136.625 50.359375 -143.28125 C 62.523438 -149.9375 76.273438 -153.265625 91.609375 -153.265625 C 103.191406 -153.265625 113.832031 -151.421875 123.53125 -147.734375 C 133.226562 -144.046875 141.40625 -138.582031 148.0625 -131.34375 L 138.078125 -121.140625 C 126.054688 -133.003906 110.785156 -138.9375 92.265625 -138.9375 C 79.960938 -138.9375 68.851562 -136.222656 58.9375 -130.796875 C 49.019531 -125.367188 41.238281 -117.84375 35.59375 -108.21875 C 29.957031 -98.59375 27.140625 -87.847656 27.140625 -75.984375 C 27.140625 -64.117188 29.957031 -53.410156 35.59375 -43.859375 C 41.238281 -34.304688 48.984375 -26.78125 58.828125 -21.28125 C 68.671875 -15.78125 79.742188 -13.03125 92.046875 -13.03125 C 107.679688 -13.03125 120.925781 -16.9375 131.78125 -24.75 Z M 131.78125 -75.984375 "/></g></g></g><g fill="#f5f5f0" fill-opacity="1"><g transform="translate(1105.4898, 590.99999)"><g><path d="M 128.515625 0 L 93.78125 -48.84375 C 89.875 -48.40625 85.820312 -48.1875 81.625 -48.1875 L 40.8125 -48.1875 L 40.8125 0 L 24.75 0 L 24.75 -151.96875 L 81.625 -151.96875 C 101.019531 -151.96875 116.21875 -147.332031 127.21875 -138.0625 C 138.21875 -128.800781 143.71875 -116.066406 143.71875 -99.859375 C 143.71875 -87.992188 140.710938 -77.972656 134.703125 -69.796875 C 128.703125 -61.617188 120.128906 -55.722656 108.984375 -52.109375 L 146.109375 0 Z M 81.1875 -61.875 C 96.238281 -61.875 107.742188 -65.203125 115.703125 -71.859375 C 123.671875 -78.515625 127.65625 -87.847656 127.65625 -99.859375 C 127.65625 -112.160156 123.671875 -121.601562 115.703125 -128.1875 C 107.742188 -134.78125 96.238281 -138.078125 81.1875 -138.078125 L 40.8125 -138.078125 L 40.8125 -61.875 Z M 81.1875 -61.875 "/></g></g></g><g fill="#f5f5f0" fill-opacity="1"><g transform="translate(1286.329738, 590.99999)"><g><path d="M 132.203125 -13.890625 L 132.203125 0 L 24.75 0 L 24.75 -151.96875 L 128.953125 -151.96875 L 128.953125 -138.078125 L 40.8125 -138.078125 L 40.8125 -84.015625 L 119.40625 -84.015625 L 119.40625 -70.34375 L 40.8125 -70.34375 L 40.8125 -13.890625 Z M 132.203125 -13.890625 "/></g></g></g><g fill="#f5f5f0" fill-opacity="1"><g transform="translate(1455.446562, 590.99999)"><g><path d="M 132.203125 -13.890625 L 132.203125 0 L 24.75 0 L 24.75 -151.96875 L 128.953125 -151.96875 L 128.953125 -138.078125 L 40.8125 -138.078125 L 40.8125 -84.015625 L 119.40625 -84.015625 L 119.40625 -70.34375 L 40.8125 -70.34375 L 40.8125 -13.890625 Z M 132.203125 -13.890625 "/></g></g></g><g fill="#f5f5f0" fill-opacity="1"><g transform="translate(1624.563409, 590.99999)"><g><path d="M 151.75 -151.96875 L 151.75 0 L 138.5 0 L 40.8125 -123.3125 L 40.8125 0 L 24.75 0 L 24.75 -151.96875 L 37.984375 -151.96875 L 135.90625 -28.65625 L 135.90625 -151.96875 Z M 151.75 -151.96875 "/></g></g></g><g fill="#f5f5f0" fill-opacity="1"><g transform="translate(1824.941844, 590.99999)"><g><path d="M 132.203125 -13.890625 L 132.203125 0 L 24.75 0 L 24.75 -151.96875 L 128.953125 -151.96875 L 128.953125 -138.078125 L 40.8125 -138.078125 L 40.8125 -84.015625 L 119.40625 -84.015625 L 119.40625 -70.34375 L 40.8125 -70.34375 L 40.8125 -13.890625 Z M 132.203125 -13.890625 "/></g></g></g><g fill="#f5f5f0" fill-opacity="1"><g transform="translate(1994.05869, 590.99999)"><g><path d="M 128.515625 0 L 93.78125 -48.84375 C 89.875 -48.40625 85.820312 -48.1875 81.625 -48.1875 L 40.8125 -48.1875 L 40.8125 0 L 24.75 0 L 24.75 -151.96875 L 81.625 -151.96875 C 101.019531 -151.96875 116.21875 -147.332031 127.21875 -138.0625 C 138.21875 -128.800781 143.71875 -116.066406 143.71875 -99.859375 C 143.71875 -87.992188 140.710938 -77.972656 134.703125 -69.796875 C 128.703125 -61.617188 120.128906 -55.722656 108.984375 -52.109375 L 146.109375 0 Z M 81.1875 -61.875 C 96.238281 -61.875 107.742188 -65.203125 115.703125 -71.859375 C 123.671875 -78.515625 127.65625 -87.847656 127.65625 -99.859375 C 127.65625 -112.160156 123.671875 -121.601562 115.703125 -128.1875 C 107.742188 -134.78125 96.238281 -138.078125 81.1875 -138.078125 L 40.8125 -138.078125 L 40.8125 -61.875 Z M 81.1875 -61.875 "/></g></g></g><g fill="#f5f5f0" fill-opacity="1"><g transform="translate(2172.727686, 590.99999)"><g><path d="M 76.84375 -52.53125 L 76.84375 0 L 61 0 L 61 -52.53125 L 0.21875 -151.96875 L 17.375 -151.96875 L 69.46875 -66.640625 L 121.578125 -151.96875 L 137.640625 -151.96875 Z M 76.84375 -52.53125 "/></g></g></g></svg>