<svg xmlns="http://www.w3.org/2000/svg" xmlns:xlink="http://www.w3.org/1999/xlink" width="1080" zoomAndPan="magnify" viewBox="0 0 810 809.999993" height="1080" preserveAspectRatio="xMidYMid meet" version="1.0"><defs><g/><clipPath id="931be57210"><path d="M 0 23 L 791.28125 23 L 791.28125 810 L 0 810 Z M 0 23 " clip-rule="nonzero"/></clipPath><clipPath id="362d266142"><path d="M 0 0 L 682 0 L 682 589 L 0 589 Z M 0 0 " clip-rule="nonzero"/></clipPath><clipPath id="f9d20c94e1"><path d="M 483 115 L 791 115 L 791 415 L 483 415 Z M 483 115 " clip-rule="nonzero"/></clipPath><clipPath id="591c1154e7"><path d="M 581.019531 115.476562 L 790.882812 221.503906 L 693.144531 414.957031 L 483.285156 308.929688 Z M 581.019531 115.476562 " clip-rule="nonzero"/></clipPath><clipPath id="e679075f78"><path d="M 45 9 L 155 9 L 155 198 L 45 198 Z M 45 9 " clip-rule="nonzero"/></clipPath><clipPath id="f1cb7d1054"><path d="M 98.019531 0.476562 L 307.882812 106.503906 L 210.144531 299.957031 L 0.285156 193.929688 Z M 98.019531 0.476562 " clip-rule="nonzero"/></clipPath><clipPath id="010a9db3ff"><path d="M 307.914062 106.519531 L 98.054688 0.492188 L 0.316406 193.945312 L 210.175781 299.972656 Z M 307.914062 106.519531 " clip-rule="nonzero"/></clipPath><clipPath id="0b8542e9d6"><path d="M 89 134 L 283 134 L 283 261 L 89 261 Z M 89 134 " clip-rule="nonzero"/></clipPath><clipPath id="4cefe1faff"><path d="M 98.019531 0.476562 L 307.882812 106.503906 L 210.144531 299.957031 L 0.285156 193.929688 Z M 98.019531 0.476562 " clip-rule="nonzero"/></clipPath><clipPath id="e173dfd1aa"><path d="M 307.914062 106.519531 L 98.054688 0.492188 L 0.316406 193.945312 L 210.175781 299.972656 Z M 307.914062 106.519531 " clip-rule="nonzero"/></clipPath><clipPath id="a85f6b10ab"><rect x="0" width="308" y="0" height="300"/></clipPath><clipPath id="9832ea5ac7"><rect x="0" width="792" y="0" height="810"/></clipPath></defs><rect x="-81" width="972" fill="#ffffff" y="-80.999999" height="971.999992" fill-opacity="1"/><rect x="-81" width="972" fill="#2d4232" y="-80.999999" height="971.999992" fill-opacity="1"/><g transform="matrix(1, 0, 0, 1, 0, 0.000000000000039746)"><g clip-path="url(#9832ea5ac7)"><g fill="#f5f5f0" fill-opacity="1"><g transform="translate(27.592074, 722.832922)"><g><path d="M 393.1875 -255.28125 L 497.84375 -255.28125 L 497.84375 -54.453125 C 470.976562 -34.179688 439.863281 -18.625 404.5 -7.78125 C 369.144531 3.0625 333.550781 8.484375 297.71875 8.484375 C 246.332031 8.484375 200.128906 -2.472656 159.109375 -24.390625 C 118.097656 -46.316406 85.921875 -76.726562 62.578125 -115.625 C 39.242188 -154.519531 27.578125 -198.484375 27.578125 -247.515625 C 27.578125 -296.546875 39.242188 -340.503906 62.578125 -379.390625 C 85.921875 -418.285156 118.332031 -448.691406 159.8125 -470.609375 C 201.300781 -492.535156 247.976562 -503.5 299.84375 -503.5 C 343.21875 -503.5 382.582031 -496.191406 417.9375 -481.578125 C 453.289062 -466.960938 482.992188 -445.75 507.046875 -417.9375 L 433.5 -350.046875 C 398.132812 -387.296875 355.46875 -405.921875 305.5 -405.921875 C 273.914062 -405.921875 245.863281 -399.316406 221.34375 -386.109375 C 196.832031 -372.910156 177.738281 -354.289062 164.0625 -330.25 C 150.394531 -306.207031 143.5625 -278.628906 143.5625 -247.515625 C 143.5625 -216.867188 150.394531 -189.519531 164.0625 -165.46875 C 177.738281 -141.425781 196.710938 -122.6875 220.984375 -109.25 C 245.265625 -95.820312 272.960938 -89.109375 304.078125 -89.109375 C 337.085938 -89.109375 366.789062 -96.175781 393.1875 -110.3125 Z M 393.1875 -255.28125 "/></g></g></g><g clip-path="url(#931be57210)"><path stroke-linecap="butt" transform="matrix(-0.680028, 0.352309, -0.352309, -0.680028, 623.922452, 430.440286)" fill="none" stroke-linejoin="miter" d="M 13.291014 77.084651 C 153.636701 29.636794 293.978479 29.640162 434.32104 77.085698 " stroke="#f5f5f0" stroke-width="83" stroke-opacity="1" stroke-miterlimit="4"/></g><g clip-path="url(#362d266142)"><path stroke-linecap="butt" transform="matrix(0.735845, -0.212349, 0.212349, 0.735845, 123.758421, 171.729561)" fill="none" stroke-linejoin="miter" d="M 16.290311 65.214164 C 88.651277 35.596028 161.012325 35.594181 233.370626 65.218424 " stroke="#c17754" stroke-width="86" stroke-opacity="1" stroke-miterlimit="4"/></g><g clip-path="url(#f9d20c94e1)"><g clip-path="url(#591c1154e7)"><g transform="matrix(1, 0, 0, 1, 483, 115)"><g clip-path="url(#a85f6b10ab)"><g clip-path="url(#e679075f78)"><g clip-path="url(#f1cb7d1054)"><g clip-path="url(#010a9db3ff)"><path fill="#f5f5f0" d="M 65.976562 64.972656 C 81.140625 38.195312 100.636719 20.601562 115.386719 9.796875 C 115.738281 9.535156 116.261719 9.582031 116.566406 9.84375 C 124.652344 17.210938 147.730469 40.132812 153.554688 77.511719 C 157.761719 104.675781 150.90625 126.464844 146.890625 136.792969 C 146.804688 136.964844 146.671875 137.226562 146.453125 137.226562 C 137.398438 141.726562 125.148438 149.09375 112.882812 160.828125 C 104.03125 169.257812 97.492188 177.871094 92.835938 185.140625 C 92.265625 186.054688 90.914062 185.480469 91.136719 184.390625 C 94.910156 169.132812 98.253906 151.90625 100.472656 133.019531 C 102.011719 120.238281 102.84375 108.199219 103.199219 96.898438 C 103.203125 95.804688 101.589844 95.539062 101.367188 96.628906 C 96.527344 115.941406 91.035156 135.90625 85.015625 156.261719 C 80.851562 170.339844 76.433594 184.066406 72.011719 197.359375 C 71.792969 198.011719 70.917969 198.226562 70.441406 197.65625 C 62.539062 187.980469 47.527344 166.621094 45.425781 136.585938 C 43.15625 105.375 56.214844 82.34375 65.976562 64.972656 Z M 65.976562 64.972656 " fill-opacity="1" fill-rule="nonzero"/></g></g></g><g clip-path="url(#0b8542e9d6)"><g clip-path="url(#4cefe1faff)"><g clip-path="url(#e173dfd1aa)"><path fill="#f5f5f0" d="M 229.328125 136.570312 C 252.664062 139.71875 270.917969 147.519531 282.5 153.589844 C 282.933594 153.8125 283.109375 154.335938 282.886719 154.773438 C 277.289062 168.015625 267.832031 186.304688 252.519531 205.355469 C 239.667969 221.273438 227.648438 236.191406 206.394531 247.101562 C 199.308594 250.738281 164.890625 268.445312 125.230469 255.621094 C 108.886719 250.316406 97.140625 241.539062 89.964844 235.183594 C 89.355469 234.65625 89.621094 233.699219 90.453125 233.570312 C 113.601562 228.648438 141.875 220.300781 172.21875 205.894531 C 186.605469 199.058594 199.597656 191.738281 210.972656 184.585938 C 211.9375 183.976562 211.15625 182.488281 210.066406 182.921875 C 190 191.480469 166.964844 199.632812 141.144531 206.375 C 125.417969 210.457031 110.4375 213.492188 96.375 215.789062 C 95.675781 215.875 95.109375 215.261719 95.375 214.519531 C 100.226562 202.101562 119.21875 158.453125 164.019531 141.621094 C 191.121094 131.476562 217.335938 134.992188 229.328125 136.570312 Z M 229.328125 136.570312 " fill-opacity="1" fill-rule="nonzero"/></g></g></g></g></g></g></g></g></g></svg>